<svg width="20" height="20" viewBox="0 0 20 20" fill="none" xmlns="http://www.w3.org/2000/svg">
<path d="M11.1824 2.96899H8.84941C8.23141 2.96899 7.63841 3.21599 7.20041 3.65499C6.76254 4.09566 6.51698 4.69178 6.51741 5.31299V6.87499H13.5144V5.31299C13.5144 4.69099 13.2684 4.09499 12.8314 3.65499C12.615 3.4377 12.3579 3.26525 12.0748 3.14753C11.7916 3.02981 11.488 2.96914 11.1814 2.96899M16.6077 9.67408L16.6084 14.891C16.608 15.4579 16.3837 16.0016 15.9844 16.404C15.7869 16.6023 15.5522 16.7598 15.2938 16.8674C15.0354 16.975 14.7583 17.0306 14.4784 17.031H5.52241C4.95741 17.031 4.41641 16.806 4.01641 16.404C3.61641 16.003 3.39241 15.458 3.39241 14.891V6.87499H14.8293" stroke="black" stroke-linecap="round" stroke-linejoin="round"/>
<path d="M16 5L17.6439 7.8768C17.6782 7.93684 17.7616 7.94477 17.8066 7.89226L19 6.5" stroke="#2A9A20" stroke-width="0.7" stroke-linecap="round"/>
</svg>
